<svg xmlns="http://www.w3.org/2000/svg" xmlns:xlink="http://www.w3.org/1999/xlink" width="1080" zoomAndPan="magnify" viewBox="0 0 810 809.999993" height="1080" preserveAspectRatio="xMidYMid meet" version="1.0"><defs><g/><clipPath id="6f3b8dfba1"><path d="M 0 369 L 409 369 L 409 405.296875 L 0 405.296875 Z M 0 369 " clip-rule="nonzero"/></clipPath></defs><g fill="#ff5757" fill-opacity="1"><g transform="translate(22.580669, 351.87828)"><g><path d="M 8.703125 -14.015625 L 8.703125 -78.578125 L 7.390625 -78.578125 L 0 -93.34375 L 8.703125 -126.296875 L 41.46875 -126.296875 L 49.046875 -111.90625 L 49.046875 -101.671875 L 62.296875 -126.296875 L 99.03125 -126.296875 L 106.03125 -112.09375 L 77.0625 -58.703125 L 102.25 -16.28125 L 110.203125 0 L 72.140625 0 L 49.046875 -40.890625 L 49.046875 0 L 15.71875 0 Z M 39 -17.609375 L 39 -64.75 L 65.515625 -17.609375 L 97.703125 -17.609375 L 65.515625 -71.765625 L 93.34375 -122.890625 L 64 -122.890625 L 39 -76.3125 L 39 -122.890625 L 11.171875 -122.890625 L 4.171875 -96 L 11.921875 -96 L 11.921875 -17.609375 Z M 39 -17.609375 "/></g></g></g><g fill="#ff5757" fill-opacity="1"><g transform="translate(126.906004, 351.87828)"><g><path d="M 8.140625 -14.953125 L 8.140625 -51.3125 L 7.390625 -51.3125 L 0.375 -65.703125 L 8.140625 -96 L 38.0625 -96 L 40.890625 -89.1875 C 44.554688 -92.082031 47.648438 -94.035156 50.171875 -95.046875 C 52.703125 -96.054688 55.609375 -96.5625 58.890625 -96.5625 C 60.523438 -96.5625 62.164062 -96.3125 63.8125 -95.8125 L 69.875 -81.984375 L 61.34375 -49.609375 C 60.71875 -49.734375 60.210938 -49.796875 59.828125 -49.796875 C 59.453125 -49.796875 59.078125 -49.796875 58.703125 -49.796875 C 53.773438 -49.796875 50.175781 -48.3125 47.90625 -45.34375 C 45.632812 -42.375 44.5 -37.671875 44.5 -31.234375 L 44.5 0 L 15.140625 0 Z M 59.265625 -92.78125 C 58.753906 -92.90625 58.28125 -92.96875 57.84375 -92.96875 C 57.40625 -92.96875 57.054688 -92.96875 56.796875 -92.96875 C 50.617188 -92.96875 43.300781 -88.296875 34.84375 -78.953125 L 34.84375 -92.78125 L 10.609375 -92.78125 L 4.734375 -68.734375 L 11.359375 -68.734375 L 11.359375 -17.609375 L 34.84375 -17.609375 L 34.84375 -47.71875 C 34.84375 -53.769531 36.164062 -58.5 38.8125 -61.90625 C 41.46875 -65.320312 45.191406 -67.03125 49.984375 -67.03125 C 50.234375 -67.03125 50.546875 -67.03125 50.921875 -67.03125 C 51.304688 -67.03125 51.816406 -66.96875 52.453125 -66.84375 Z M 59.265625 -92.78125 "/></g></g></g><g fill="#ff5757" fill-opacity="1"><g transform="translate(197.339806, 351.87828)"><g><path d="M 81.046875 -0.953125 C 77.003906 0.0546875 73.148438 0.75 69.484375 1.125 C 65.828125 1.507812 62.101562 1.703125 58.3125 1.703125 C 47.582031 1.703125 38.648438 -0.0625 31.515625 -3.59375 C 24.390625 -7.132812 18.554688 -12.691406 14.015625 -20.265625 C 10.097656 -26.828125 7.128906 -33.195312 5.109375 -39.375 C 3.085938 -45.5625 2.078125 -51.4375 2.078125 -57 C 2.078125 -62.675781 3.148438 -68.003906 5.296875 -72.984375 C 7.441406 -77.972656 10.34375 -82.296875 14 -85.953125 C 17.664062 -89.617188 22.023438 -92.492188 27.078125 -94.578125 C 32.128906 -96.660156 37.554688 -97.703125 43.359375 -97.703125 C 56.742188 -97.703125 67.597656 -92.082031 75.921875 -80.84375 C 77.691406 -78.320312 79.679688 -74.789062 81.890625 -70.25 C 84.097656 -65.707031 86.273438 -60.40625 88.421875 -54.34375 C 89.554688 -51.1875 90.34375 -48.15625 90.78125 -45.25 C 91.226562 -42.34375 91.578125 -38.492188 91.828125 -33.703125 L 84.828125 -33.703125 L 87.671875 -27.453125 Z M 76.6875 -38.25 C 73.40625 -37.613281 69.867188 -37.039062 66.078125 -36.53125 C 62.296875 -36.03125 59.140625 -35.78125 56.609375 -35.78125 C 52.066406 -35.78125 47.773438 -36.378906 43.734375 -37.578125 C 39.691406 -38.785156 36.535156 -40.460938 34.265625 -42.609375 C 33.003906 -43.609375 31.992188 -44.769531 31.234375 -46.09375 C 30.484375 -47.425781 29.601562 -49.164062 28.59375 -51.3125 L 81.609375 -51.3125 C 81.359375 -56.101562 80.851562 -60.015625 80.09375 -63.046875 C 79.332031 -66.078125 78.195312 -69.234375 76.6875 -72.515625 C 73.40625 -79.460938 68.828125 -84.859375 62.953125 -88.703125 C 57.085938 -92.554688 50.492188 -94.484375 43.171875 -94.484375 C 37.867188 -94.484375 32.910156 -93.503906 28.296875 -91.546875 C 23.691406 -89.585938 19.71875 -86.875 16.375 -83.40625 C 13.03125 -79.9375 10.410156 -75.832031 8.515625 -71.09375 C 6.628906 -66.363281 5.6875 -61.222656 5.6875 -55.671875 C 5.6875 -49.734375 6.789062 -44.332031 9 -39.46875 C 11.207031 -34.613281 14.328125 -30.453125 18.359375 -26.984375 C 22.398438 -23.515625 27.257812 -20.832031 32.9375 -18.9375 C 38.625 -17.039062 45 -16.09375 52.0625 -16.09375 C 54.96875 -16.09375 58 -16.25 61.15625 -16.5625 C 64.3125 -16.882812 67.785156 -17.421875 71.578125 -18.171875 Z M 28.96875 -64.9375 C 30.988281 -74.03125 35.847656 -78.578125 43.546875 -78.578125 C 50.992188 -78.578125 55.601562 -74.03125 57.375 -64.9375 Z M 28.96875 -64.9375 "/></g></g></g><g fill="#ff5757" fill-opacity="1"><g transform="translate(290.304855, 351.87828)"><g><path d="M 47.328125 0 C 40.140625 0 34.019531 -1.320312 28.96875 -3.96875 C 23.914062 -6.625 19.375 -10.851562 15.34375 -16.65625 C 13.445312 -19.4375 11.675781 -22.5 10.03125 -25.84375 C 8.394531 -29.1875 6.972656 -32.59375 5.765625 -36.0625 C 4.566406 -39.539062 3.648438 -42.953125 3.015625 -46.296875 C 2.390625 -49.640625 2.078125 -52.765625 2.078125 -55.671875 C 2.078125 -61.347656 3.054688 -66.707031 5.015625 -71.75 C 6.972656 -76.800781 9.6875 -81.15625 13.15625 -84.8125 C 16.625 -88.476562 20.660156 -91.382812 25.265625 -93.53125 C 29.878906 -95.675781 34.835938 -96.75 40.140625 -96.75 C 43.171875 -96.75 45.914062 -96.460938 48.375 -95.890625 C 50.832031 -95.328125 53.640625 -94.289062 56.796875 -92.78125 L 56.796875 -96 L 85.390625 -96 L 93.15625 -81.046875 L 93.15625 -43.734375 L 94.296875 -43.734375 L 100.734375 -29.53125 L 93.15625 0 L 68.15625 0 L 64.5625 -7 L 61.71875 0 Z M 90.5 -41.46875 L 83.6875 -41.46875 L 83.6875 -92.78125 L 60.015625 -92.78125 L 60.015625 -87.671875 C 56.234375 -89.816406 52.859375 -91.296875 49.890625 -92.109375 C 46.921875 -92.929688 43.796875 -93.34375 40.515625 -93.34375 C 35.597656 -93.34375 31.023438 -92.363281 26.796875 -90.40625 C 22.566406 -88.457031 18.90625 -85.773438 15.8125 -82.359375 C 12.71875 -78.953125 10.253906 -74.910156 8.421875 -70.234375 C 6.597656 -65.566406 5.6875 -60.582031 5.6875 -55.28125 C 5.6875 -47.457031 7.421875 -40.546875 10.890625 -34.546875 C 14.359375 -28.554688 18.992188 -24.300781 24.796875 -21.78125 C 27.953125 -20.507812 31.675781 -19.492188 35.96875 -18.734375 C 40.257812 -17.984375 44.425781 -17.609375 48.46875 -17.609375 L 54.90625 -17.609375 L 60.21875 -30.859375 L 60.21875 -17.609375 L 84.265625 -17.609375 Z M 47.53125 -40.328125 C 41.46875 -40.328125 36.796875 -41.679688 33.515625 -44.390625 C 30.234375 -47.109375 28.59375 -50.867188 28.59375 -55.671875 C 28.59375 -60.210938 30.101562 -64.03125 33.125 -67.125 C 36.15625 -70.21875 39.945312 -71.765625 44.5 -71.765625 C 47.019531 -71.765625 49.320312 -71.226562 51.40625 -70.15625 C 53.488281 -69.082031 55.222656 -67.660156 56.609375 -65.890625 C 58.003906 -64.117188 58.921875 -62.222656 59.359375 -60.203125 C 59.796875 -58.191406 60.015625 -55.039062 60.015625 -50.75 L 60.015625 -40.328125 Z M 56.609375 -43.734375 L 56.609375 -52.640625 C 54.335938 -53.773438 51.878906 -54.34375 49.234375 -54.34375 C 44.304688 -54.34375 40.769531 -51.3125 38.625 -45.25 C 40.519531 -44.238281 43.800781 -43.734375 48.46875 -43.734375 Z M 56.609375 -43.734375 "/></g></g></g><g fill="#ff5757" fill-opacity="1"><g transform="translate(391.790105, 351.87828)"><g><path d="M 10.40625 -15.140625 L 10.40625 -51.3125 L 7.953125 -51.3125 L 1.140625 -65.890625 L 8.703125 -96 L 10.40625 -96 L 10.40625 -105.84375 L 39.765625 -113.421875 L 47.140625 -99.03125 L 47.140625 -96 L 53.78125 -96 L 60.96875 -80.46875 L 53.015625 -51.3125 L 47.140625 -51.3125 L 47.140625 0 L 17.609375 0 Z M 13.828125 -69.109375 L 13.828125 -17.609375 L 37.296875 -17.609375 L 37.296875 -69.109375 L 43.359375 -69.109375 L 49.421875 -92.78125 L 37.296875 -92.78125 L 37.296875 -109.0625 L 13.828125 -103.1875 L 13.828125 -92.78125 L 11.171875 -92.78125 L 5.109375 -69.109375 Z M 13.828125 -69.109375 "/></g></g></g><g fill="#ff5757" fill-opacity="1"><g transform="translate(453.135658, 351.87828)"><g><path d="M 44.3125 -97.140625 C 51.5 -97.140625 58.1875 -95.492188 64.375 -92.203125 C 70.5625 -88.921875 75.484375 -84.441406 79.140625 -78.765625 C 80.660156 -76.492188 82.269531 -73.617188 83.96875 -70.140625 C 85.675781 -66.671875 87.222656 -63.109375 88.609375 -59.453125 C 90.003906 -55.796875 90.953125 -52.796875 91.453125 -50.453125 C 91.953125 -48.117188 92.203125 -45.375 92.203125 -42.21875 C 92.203125 -36.039062 91.128906 -30.300781 88.984375 -25 C 86.835938 -19.695312 83.898438 -15.117188 80.171875 -11.265625 C 76.453125 -7.410156 72.066406 -4.378906 67.015625 -2.171875 C 61.972656 0.0351562 56.488281 1.140625 50.5625 1.140625 C 44.5 1.140625 38.722656 -0.0546875 33.234375 -2.453125 C 27.742188 -4.859375 23.101562 -8.207031 19.3125 -12.5 C 17.414062 -14.644531 15.582031 -17.226562 13.8125 -20.25 C 12.050781 -23.28125 10.160156 -27.195312 8.140625 -32 C 7.003906 -34.644531 6.054688 -37.007812 5.296875 -39.09375 C 4.546875 -41.175781 3.914062 -43.101562 3.40625 -44.875 C 2.90625 -46.644531 2.554688 -48.378906 2.359375 -50.078125 C 2.171875 -51.785156 2.078125 -53.519531 2.078125 -55.28125 C 2.078125 -61.09375 3.179688 -66.519531 5.390625 -71.5625 C 7.597656 -76.613281 10.628906 -81.03125 14.484375 -84.8125 C 18.335938 -88.601562 22.816406 -91.601562 27.921875 -93.8125 C 33.035156 -96.03125 38.5 -97.140625 44.3125 -97.140625 Z M 44.6875 -93.53125 C 39.257812 -93.53125 34.175781 -92.550781 29.4375 -90.59375 C 24.707031 -88.644531 20.570312 -85.929688 17.03125 -82.453125 C 13.5 -78.984375 10.722656 -74.910156 8.703125 -70.234375 C 6.691406 -65.566406 5.6875 -60.519531 5.6875 -55.09375 C 5.6875 -49.789062 6.691406 -44.773438 8.703125 -40.046875 C 10.722656 -35.316406 13.5 -31.210938 17.03125 -27.734375 C 20.570312 -24.265625 24.707031 -21.519531 29.4375 -19.5 C 34.175781 -17.476562 39.257812 -16.46875 44.6875 -16.46875 C 49.988281 -16.46875 54.941406 -17.476562 59.546875 -19.5 C 64.148438 -21.519531 68.1875 -24.234375 71.65625 -27.640625 C 75.132812 -31.046875 77.882812 -35.050781 79.90625 -39.65625 C 81.925781 -44.269531 82.9375 -49.164062 82.9375 -54.34375 C 82.9375 -59.769531 81.957031 -64.878906 80 -69.671875 C 78.039062 -74.472656 75.328125 -78.640625 71.859375 -82.171875 C 68.390625 -85.710938 64.316406 -88.488281 59.640625 -90.5 C 54.972656 -92.519531 49.988281 -93.53125 44.6875 -93.53125 Z M 44.6875 -71.375 C 49.351562 -71.375 53.265625 -69.734375 56.421875 -66.453125 C 59.578125 -63.171875 61.15625 -59.132812 61.15625 -54.34375 C 61.15625 -49.925781 59.609375 -46.171875 56.515625 -43.078125 C 53.421875 -39.984375 49.664062 -38.4375 45.25 -38.4375 C 42.851562 -38.4375 40.613281 -38.84375 38.53125 -39.65625 C 36.445312 -40.476562 34.613281 -41.644531 33.03125 -43.15625 C 31.457031 -44.675781 30.226562 -46.445312 29.34375 -48.46875 C 28.457031 -50.488281 28.015625 -52.632812 28.015625 -54.90625 C 28.015625 -59.707031 29.59375 -63.648438 32.75 -66.734375 C 35.90625 -69.828125 39.882812 -71.375 44.6875 -71.375 Z M 57 -51.875 C 54.851562 -53.144531 52.640625 -53.78125 50.359375 -53.78125 C 44.554688 -53.78125 40.394531 -50.429688 37.875 -43.734375 C 39.257812 -42.984375 40.394531 -42.476562 41.28125 -42.21875 C 42.164062 -41.96875 43.300781 -41.84375 44.6875 -41.84375 C 47.71875 -41.84375 50.335938 -42.691406 52.546875 -44.390625 C 54.753906 -46.097656 56.238281 -48.59375 57 -51.875 Z M 57 -51.875 "/></g></g></g><g fill="#ff5757" fill-opacity="1"><g transform="translate(547.426049, 351.87828)"><g><path d="M 8.140625 -14.953125 L 8.140625 -51.3125 L 7.390625 -51.3125 L 0.375 -65.703125 L 8.140625 -96 L 38.0625 -96 L 40.890625 -89.1875 C 44.554688 -92.082031 47.648438 -94.035156 50.171875 -95.046875 C 52.703125 -96.054688 55.609375 -96.5625 58.890625 -96.5625 C 60.523438 -96.5625 62.164062 -96.3125 63.8125 -95.8125 L 69.875 -81.984375 L 61.34375 -49.609375 C 60.71875 -49.734375 60.210938 -49.796875 59.828125 -49.796875 C 59.453125 -49.796875 59.078125 -49.796875 58.703125 -49.796875 C 53.773438 -49.796875 50.175781 -48.3125 47.90625 -45.34375 C 45.632812 -42.375 44.5 -37.671875 44.5 -31.234375 L 44.5 0 L 15.140625 0 Z M 59.265625 -92.78125 C 58.753906 -92.90625 58.28125 -92.96875 57.84375 -92.96875 C 57.40625 -92.96875 57.054688 -92.96875 56.796875 -92.96875 C 50.617188 -92.96875 43.300781 -88.296875 34.84375 -78.953125 L 34.84375 -92.78125 L 10.609375 -92.78125 L 4.734375 -68.734375 L 11.359375 -68.734375 L 11.359375 -17.609375 L 34.84375 -17.609375 L 34.84375 -47.71875 C 34.84375 -53.769531 36.164062 -58.5 38.8125 -61.90625 C 41.46875 -65.320312 45.191406 -67.03125 49.984375 -67.03125 C 50.234375 -67.03125 50.546875 -67.03125 50.921875 -67.03125 C 51.304688 -67.03125 51.816406 -66.96875 52.453125 -66.84375 Z M 59.265625 -92.78125 "/></g></g></g><g fill="#ff5757" fill-opacity="1"><g transform="translate(617.859851, 351.87828)"><g><path d="M 2.65625 -20.828125 L 10.40625 -46.015625 C 11.289062 -45.503906 11.984375 -45.125 12.484375 -44.875 C 12.992188 -44.625 13.566406 -44.242188 14.203125 -43.734375 C 14.960938 -43.234375 15.5 -42.882812 15.8125 -42.6875 C 16.125 -42.5 16.660156 -42.28125 17.421875 -42.03125 C 16.035156 -43.414062 14.613281 -45.398438 13.15625 -47.984375 C 11.707031 -50.578125 10.382812 -53.328125 9.1875 -56.234375 C 7.988281 -59.140625 7.007812 -62.039062 6.25 -64.9375 C 5.488281 -67.84375 5.109375 -70.242188 5.109375 -72.140625 C 5.109375 -75.796875 5.832031 -79.171875 7.28125 -82.265625 C 8.738281 -85.359375 10.789062 -88.039062 13.4375 -90.3125 C 16.09375 -92.582031 19.25 -94.347656 22.90625 -95.609375 C 26.570312 -96.878906 30.550781 -97.515625 34.84375 -97.515625 C 39.757812 -97.515625 44.425781 -96.878906 48.84375 -95.609375 C 53.269531 -94.347656 58.320312 -92.269531 64 -89.375 L 70.4375 -74.03125 L 63.046875 -50.359375 C 65.703125 -45.191406 67.847656 -40.175781 69.484375 -35.3125 C 71.128906 -30.445312 71.953125 -26.566406 71.953125 -23.671875 C 71.953125 -20.003906 71.160156 -16.65625 69.578125 -13.625 C 68.003906 -10.601562 65.828125 -7.953125 63.046875 -5.671875 C 60.273438 -3.398438 56.992188 -1.632812 53.203125 -0.375 C 49.421875 0.882812 45.316406 1.515625 40.890625 1.515625 C 35.460938 1.515625 30.222656 0.914062 25.171875 -0.28125 C 20.128906 -1.476562 14.453125 -3.53125 8.140625 -6.4375 Z M 6.8125 -22.53125 C 11.988281 -20.507812 17.164062 -18.992188 22.34375 -17.984375 C 27.519531 -16.972656 32.441406 -16.46875 37.109375 -16.46875 C 44.929688 -16.46875 51.144531 -18.457031 55.75 -22.4375 C 60.363281 -26.414062 62.671875 -31.8125 62.671875 -38.625 C 62.671875 -44.8125 59.957031 -49.925781 54.53125 -53.96875 C 53.644531 -54.71875 52.851562 -55.3125 52.15625 -55.75 C 51.46875 -56.195312 50.679688 -56.640625 49.796875 -57.078125 C 48.910156 -57.523438 47.773438 -58.03125 46.390625 -58.59375 C 45.003906 -59.164062 43.171875 -59.894531 40.890625 -60.78125 C 36.097656 -62.550781 33.703125 -65.078125 33.703125 -68.359375 C 33.703125 -70.503906 34.457031 -72.238281 35.96875 -73.5625 C 37.488281 -74.882812 39.445312 -75.546875 41.84375 -75.546875 C 43.863281 -75.546875 45.851562 -75.164062 47.8125 -74.40625 C 49.769531 -73.65625 52.195312 -72.332031 55.09375 -70.4375 L 60.78125 -87.671875 C 55.851562 -90.191406 51.367188 -91.957031 47.328125 -92.96875 C 43.296875 -93.976562 39.070312 -94.484375 34.65625 -94.484375 C 30.863281 -94.484375 27.390625 -93.914062 24.234375 -92.78125 C 21.078125 -91.644531 18.332031 -90.097656 16 -88.140625 C 13.664062 -86.179688 11.832031 -83.84375 10.5 -81.125 C 9.175781 -78.414062 8.515625 -75.484375 8.515625 -72.328125 C 8.515625 -69.804688 9.050781 -67.25 10.125 -64.65625 C 11.195312 -62.070312 12.617188 -60.019531 14.390625 -58.5 C 15.773438 -57.238281 17.632812 -56.039062 19.96875 -54.90625 C 22.3125 -53.769531 25.375 -52.507812 29.15625 -51.125 C 32.4375 -49.863281 34.707031 -48.628906 35.96875 -47.421875 C 37.238281 -46.222656 37.875 -44.617188 37.875 -42.609375 C 37.875 -40.328125 37.113281 -38.523438 35.59375 -37.203125 C 34.082031 -35.878906 32 -35.21875 29.34375 -35.21875 C 26.820312 -35.21875 24.265625 -35.625 21.671875 -36.4375 C 19.085938 -37.257812 15.96875 -38.742188 12.3125 -40.890625 Z M 6.8125 -22.53125 "/></g></g></g><g clip-path="url(#6f3b8dfba1)"><path fill="#ff5757" d="M 239.183594 396.117188 C 208.367188 397.015625 177.554688 397.910156 146.742188 398.804688 C 140.144531 398.996094 133.539062 399.117188 126.9375 399.363281 C 141.214844 398.226562 155.507812 397.363281 169.804688 396.785156 C 192.921875 395.851562 216.058594 395.625 239.183594 396.117188 Z M 407.597656 371.179688 C 355.128906 369.0625 302.640625 368.664062 250.152344 370.175781 C 197.503906 371.691406 144.785156 374.644531 92.328125 379.914062 C 61.886719 382.96875 31.507812 386.359375 1.230469 391 C -0.0234375 391.191406 1.035156 392.476562 1.871094 392.40625 C 28.25 390.117188 54.59375 387.296875 80.984375 385.144531 C 107.101562 383.023438 133.242188 381.195312 159.394531 379.796875 C 209.6875 377.113281 260.050781 376.015625 310.402344 376.371094 C 300.644531 377.039062 290.882812 377.734375 281.121094 378.449219 C 239.011719 381.542969 196.945312 385.378906 154.945312 389.945312 C 131.363281 392.511719 107.804688 395.316406 84.265625 398.351562 C 82.222656 398.617188 79.890625 404.144531 82.722656 403.796875 C 88.207031 403.136719 93.695312 402.511719 99.1875 401.9375 C 98.914062 402.214844 98.675781 402.53125 98.492188 402.890625 C 98.121094 403.628906 97.917969 405.230469 99.117188 405.195312 C 105.832031 404.996094 112.597656 405.351562 119.316406 405.292969 C 126.082031 405.230469 132.839844 404.945312 139.597656 404.738281 C 153.085938 404.328125 166.574219 403.917969 180.066406 403.503906 C 207.480469 402.667969 234.894531 401.835938 262.308594 401.003906 C 277.417969 400.546875 292.523438 400.085938 307.632812 399.628906 C 309.414062 399.574219 311.917969 394.269531 309.582031 394.082031 C 280.390625 391.738281 251.128906 390.523438 221.859375 390.433594 C 216.875 390.417969 211.890625 390.441406 206.902344 390.492188 C 207.574219 390.429688 208.25 390.367188 208.921875 390.308594 C 251.019531 386.578125 293.15625 383.625 335.34375 381.515625 C 359.03125 380.335938 382.730469 379.429688 406.429688 378.570312 C 408.777344 378.484375 410.035156 371.277344 407.597656 371.179688 " fill-opacity="1" fill-rule="nonzero"/></g><g fill="#ff8b8b" fill-opacity="1"><g transform="translate(357.159535, 434.360648)"><g><path d="M 3.34375 -5.453125 L 3.34375 -30.171875 L 2.765625 -30.171875 L 0 -35.625 L 3.34375 -48.5 L 21.15625 -48.5 C 24.550781 -48.5 27.226562 -48.085938 29.1875 -47.265625 C 31.15625 -46.441406 32.796875 -45.015625 34.109375 -42.984375 C 34.734375 -41.960938 35.675781 -40 36.9375 -37.09375 C 37.1875 -36.457031 37.394531 -35.921875 37.5625 -35.484375 C 37.726562 -35.046875 37.859375 -34.617188 37.953125 -34.203125 C 38.054688 -33.796875 38.117188 -33.410156 38.140625 -33.046875 C 38.160156 -32.679688 38.171875 -32.257812 38.171875 -31.78125 C 38.171875 -30.082031 37.890625 -28.578125 37.328125 -27.265625 C 36.773438 -25.960938 35.96875 -24.894531 34.90625 -24.0625 C 35.101562 -23.78125 35.359375 -23.320312 35.671875 -22.6875 C 35.984375 -22.0625 36.40625 -21.285156 36.9375 -20.359375 C 37.757812 -18.765625 38.398438 -17.210938 38.859375 -15.703125 C 39.328125 -14.203125 39.5625 -12.847656 39.5625 -11.640625 C 39.5625 -9.691406 39.132812 -7.929688 38.28125 -6.359375 C 37.4375 -4.785156 36.238281 -3.46875 34.6875 -2.40625 C 33.425781 -1.570312 31.9375 -0.960938 30.21875 -0.578125 C 28.5 -0.191406 26.253906 0 23.484375 0 L 6.03125 0 Z M 4.734375 -6.765625 L 20.21875 -6.765625 C 22.925781 -6.765625 25.175781 -6.957031 26.96875 -7.34375 C 28.769531 -7.726562 30.226562 -8.332031 31.34375 -9.15625 C 34.0625 -11.101562 35.421875 -13.941406 35.421875 -17.671875 C 35.421875 -22.765625 32.800781 -26.179688 27.5625 -27.921875 C 29.789062 -28.847656 31.4375 -30.046875 32.5 -31.515625 C 33.570312 -32.992188 34.109375 -34.875 34.109375 -37.15625 C 34.109375 -38.90625 33.707031 -40.539062 32.90625 -42.0625 C 32.101562 -43.59375 31.046875 -44.722656 29.734375 -45.453125 C 27.609375 -46.609375 24.675781 -47.1875 20.9375 -47.1875 L 4.4375 -47.1875 L 1.671875 -36.875 L 4.734375 -36.875 Z M 14.984375 -38.46875 L 19.125 -38.46875 C 21.019531 -38.46875 22.398438 -38.148438 23.265625 -37.515625 C 24.140625 -36.890625 24.578125 -35.875 24.578125 -34.46875 C 24.578125 -32.914062 24.101562 -31.8125 23.15625 -31.15625 C 22.21875 -30.5 20.628906 -30.171875 18.390625 -30.171875 L 14.984375 -30.171875 Z M 14.984375 -25.15625 L 18.546875 -25.15625 C 22.804688 -25.15625 24.9375 -23.601562 24.9375 -20.5 C 24.9375 -18.957031 24.359375 -17.75 23.203125 -16.875 C 22.660156 -16.476562 22.050781 -16.207031 21.375 -16.0625 C 20.695312 -15.925781 19.679688 -15.859375 18.328125 -15.859375 L 14.984375 -15.859375 Z M 19.125 -17.09375 C 20.1875 -17.132812 20.898438 -17.203125 21.265625 -17.296875 C 21.628906 -17.398438 22.054688 -17.671875 22.546875 -18.109375 L 19.125 -18.109375 Z M 19.125 -17.09375 "/></g></g></g><g fill="#ff8b8b" fill-opacity="1"><g transform="translate(398.101206, 434.360648)"><g><path d="M 2.984375 2.625 L 5.53125 -7.203125 C 5.71875 -7.097656 5.875 -7.019531 6 -6.96875 C 6.125 -6.925781 6.351562 -6.859375 6.6875 -6.765625 C 5.914062 -8.316406 5.296875 -9.585938 4.828125 -10.578125 C 4.367188 -11.578125 4.03125 -12.507812 3.8125 -13.375 C 3.59375 -14.25 3.445312 -15.144531 3.375 -16.0625 C 3.300781 -16.988281 3.242188 -18.15625 3.203125 -19.5625 L 2.84375 -19.5625 L 0 -25.234375 L 3.046875 -36.875 L 14.25 -36.875 L 17.234375 -31.203125 L 17.234375 -17.890625 C 17.617188 -17.796875 17.929688 -17.734375 18.171875 -17.703125 C 18.421875 -17.679688 18.882812 -17.671875 19.5625 -17.671875 C 19.945312 -17.671875 20.210938 -17.671875 20.359375 -17.671875 C 20.503906 -17.671875 20.75 -17.695312 21.09375 -17.75 L 21.09375 -36.875 L 32.359375 -36.875 L 35.203125 -30.6875 L 35.203125 -3.78125 C 35.203125 -2.613281 35.175781 -1.601562 35.125 -0.75 C 35.070312 0.09375 34.972656 0.835938 34.828125 1.484375 C 34.679688 2.140625 34.488281 2.734375 34.25 3.265625 C 34.007812 3.804688 33.71875 4.34375 33.375 4.875 C 32.113281 6.71875 30.40625 8.109375 28.25 9.046875 C 26.09375 9.992188 23.5625 10.46875 20.65625 10.46875 C 18.320312 10.46875 15.757812 10.257812 12.96875 9.84375 C 10.1875 9.4375 7.582031 8.894531 5.15625 8.21875 Z M 4.359375 1.8125 C 6.546875 2.5 8.835938 3.007812 11.234375 3.34375 C 13.628906 3.6875 16.015625 3.859375 18.390625 3.859375 C 21.304688 3.859375 23.78125 3.421875 25.8125 2.546875 C 27.851562 1.671875 29.304688 0.382812 30.171875 -1.3125 C 30.566406 -2.132812 30.859375 -3.175781 31.046875 -4.4375 C 31.242188 -5.695312 31.34375 -7.414062 31.34375 -9.59375 L 31.34375 -35.625 L 22.25 -35.625 L 22.25 -16.5 L 19.78125 -16.5 C 18.375 -16.5 17.304688 -16.597656 16.578125 -16.796875 C 15.847656 -16.992188 15.21875 -17.359375 14.6875 -17.890625 C 14.15625 -18.472656 13.789062 -19.085938 13.59375 -19.734375 C 13.40625 -20.390625 13.3125 -21.472656 13.3125 -22.984375 L 13.3125 -35.625 L 3.921875 -35.625 L 1.671875 -26.390625 L 4.359375 -26.390625 L 4.359375 -21.8125 C 4.359375 -20.21875 4.367188 -18.921875 4.390625 -17.921875 C 4.421875 -16.929688 4.492188 -16.082031 4.609375 -15.375 C 4.734375 -14.675781 4.890625 -14.070312 5.078125 -13.5625 C 5.273438 -13.050781 5.570312 -12.503906 5.96875 -11.921875 C 7.613281 -9.253906 10.664062 -7.921875 15.125 -7.921875 L 20.078125 -7.921875 L 22.328125 -13.53125 L 22.328125 -10.40625 C 22.328125 -9 22.273438 -8.023438 22.171875 -7.484375 C 22.078125 -6.953125 21.882812 -6.421875 21.59375 -5.890625 C 20.625 -4.242188 18.640625 -3.421875 15.640625 -3.421875 C 14.128906 -3.421875 12.679688 -3.566406 11.296875 -3.859375 C 9.921875 -4.148438 8.265625 -4.679688 6.328125 -5.453125 Z M 4.359375 1.8125 "/></g></g></g><g fill="#ff8b8b" fill-opacity="1"><g transform="translate(435.697729, 434.360648)"><g/></g></g><g fill="#ff8b8b" fill-opacity="1"><g transform="translate(457.513892, 434.360648)"><g><path d="M 1.8125 -8.140625 L 4.65625 -20.71875 C 6.007812 -20.039062 7.195312 -19.472656 8.21875 -19.015625 C 9.238281 -18.554688 10.160156 -18.179688 10.984375 -17.890625 C 11.804688 -17.597656 12.578125 -17.390625 13.296875 -17.265625 C 14.023438 -17.148438 14.753906 -17.09375 15.484375 -17.09375 C 15.921875 -17.09375 16.476562 -17.210938 17.15625 -17.453125 C 14.976562 -17.835938 12.96875 -18.46875 11.125 -19.34375 C 9.28125 -20.21875 7.847656 -21.1875 6.828125 -22.25 C 6.054688 -23.03125 5.316406 -23.953125 4.609375 -25.015625 C 3.910156 -26.078125 3.148438 -27.4375 2.328125 -29.09375 C 1.117188 -31.613281 0.515625 -33.988281 0.515625 -36.21875 C 0.515625 -38.101562 0.863281 -39.832031 1.5625 -41.40625 C 2.269531 -42.988281 3.253906 -44.335938 4.515625 -45.453125 C 5.773438 -46.566406 7.300781 -47.4375 9.09375 -48.0625 C 10.882812 -48.695312 12.847656 -49.015625 14.984375 -49.015625 C 15.566406 -49.015625 16.160156 -48.988281 16.765625 -48.9375 C 17.367188 -48.882812 18.15625 -48.8125 19.125 -48.71875 L 19.484375 -50.46875 L 30.828125 -48.859375 L 33.8125 -43.125 L 30.828125 -29.953125 C 28.703125 -30.929688 26.957031 -31.613281 25.59375 -32 C 24.238281 -32.382812 22.859375 -32.578125 21.453125 -32.578125 L 20.796875 -32.578125 C 22.296875 -32.046875 23.566406 -31.546875 24.609375 -31.078125 C 25.648438 -30.617188 26.546875 -30.144531 27.296875 -29.65625 C 28.054688 -29.175781 28.722656 -28.617188 29.296875 -27.984375 C 29.878906 -27.359375 30.488281 -26.613281 31.125 -25.75 C 32.476562 -23.851562 33.554688 -21.789062 34.359375 -19.5625 C 35.160156 -17.332031 35.5625 -15.320312 35.5625 -13.53125 C 35.5625 -11.445312 35.148438 -9.539062 34.328125 -7.8125 C 33.503906 -6.09375 32.335938 -4.613281 30.828125 -3.375 C 29.328125 -2.144531 27.554688 -1.175781 25.515625 -0.46875 C 23.484375 0.226562 21.234375 0.578125 18.765625 0.578125 C 16.335938 0.578125 14.019531 0.3125 11.8125 -0.21875 C 9.613281 -0.75 7.226562 -1.570312 4.65625 -2.6875 Z M 3.421875 -9.15625 C 5.160156 -8.238281 7.191406 -7.523438 9.515625 -7.015625 C 11.847656 -6.503906 14.175781 -6.25 16.5 -6.25 C 18.632812 -6.25 20.597656 -6.578125 22.390625 -7.234375 C 24.191406 -7.890625 25.742188 -8.785156 27.046875 -9.921875 C 28.359375 -11.066406 29.378906 -12.425781 30.109375 -14 C 30.835938 -15.570312 31.203125 -17.304688 31.203125 -19.203125 C 31.203125 -23.703125 29.257812 -27.046875 25.375 -29.234375 C 24.988281 -29.472656 24.613281 -29.675781 24.25 -29.84375 C 23.882812 -30.019531 23.457031 -30.203125 22.96875 -30.390625 C 22.488281 -30.585938 21.894531 -30.796875 21.1875 -31.015625 C 20.488281 -31.234375 19.609375 -31.507812 18.546875 -31.84375 C 17.429688 -32.1875 16.507812 -32.503906 15.78125 -32.796875 C 15.050781 -33.085938 14.492188 -33.378906 14.109375 -33.671875 C 13.722656 -33.960938 13.457031 -34.289062 13.3125 -34.65625 C 13.164062 -35.019531 13.09375 -35.441406 13.09375 -35.921875 C 13.09375 -37.035156 13.578125 -37.921875 14.546875 -38.578125 C 15.515625 -39.234375 16.820312 -39.5625 18.46875 -39.5625 C 20.40625 -39.5625 23.191406 -38.878906 26.828125 -37.515625 L 29.234375 -47.84375 L 20.4375 -49.078125 L 20 -47.265625 C 18.925781 -47.460938 18.050781 -47.597656 17.375 -47.671875 C 16.695312 -47.742188 15.921875 -47.78125 15.046875 -47.78125 C 13.066406 -47.78125 11.265625 -47.5 9.640625 -46.9375 C 8.015625 -46.382812 6.628906 -45.597656 5.484375 -44.578125 C 4.347656 -43.554688 3.460938 -42.332031 2.828125 -40.90625 C 2.203125 -39.476562 1.890625 -37.890625 1.890625 -36.140625 C 1.890625 -32.941406 2.96875 -30.375 5.125 -28.4375 C 7.28125 -26.5 10.804688 -24.921875 15.703125 -23.703125 C 17.359375 -23.265625 18.546875 -22.726562 19.265625 -22.09375 C 19.992188 -21.46875 20.359375 -20.625 20.359375 -19.5625 C 20.359375 -18.445312 19.910156 -17.550781 19.015625 -16.875 C 18.117188 -16.195312 16.921875 -15.859375 15.421875 -15.859375 C 14.015625 -15.859375 12.535156 -16.085938 10.984375 -16.546875 C 9.429688 -17.003906 7.613281 -17.742188 5.53125 -18.765625 Z M 3.421875 -9.15625 "/></g></g></g><g fill="#ff8b8b" fill-opacity="1"><g transform="translate(494.019606, 434.360648)"><g><path d="M 25.3125 -0.578125 C 23.851562 -0.191406 22.695312 0.0703125 21.84375 0.21875 C 21 0.363281 20.164062 0.4375 19.34375 0.4375 C 17.164062 0.4375 15.03125 -0.0351562 12.9375 -0.984375 C 10.851562 -1.929688 9.085938 -3.203125 7.640625 -4.796875 C 6.328125 -6.296875 4.726562 -9.007812 2.84375 -12.9375 C 2.113281 -14.488281 1.585938 -15.894531 1.265625 -17.15625 C 0.953125 -18.414062 0.796875 -19.726562 0.796875 -21.09375 C 0.796875 -23.320312 1.21875 -25.425781 2.0625 -27.40625 C 2.914062 -29.394531 4.066406 -31.117188 5.515625 -32.578125 C 6.972656 -34.035156 8.679688 -35.1875 10.640625 -36.03125 C 12.609375 -36.882812 14.734375 -37.3125 17.015625 -37.3125 C 18.035156 -37.3125 18.96875 -37.238281 19.8125 -37.09375 C 20.664062 -36.945312 21.578125 -36.703125 22.546875 -36.359375 L 25.3125 -31.046875 L 22.546875 -19.859375 C 21.671875 -20.242188 21.085938 -20.472656 20.796875 -20.546875 C 20.503906 -20.617188 20.140625 -20.65625 19.703125 -20.65625 C 18.492188 -20.65625 17.460938 -20.3125 16.609375 -19.625 C 15.765625 -18.945312 15.195312 -17.976562 14.90625 -16.71875 C 15.289062 -16.53125 15.613281 -16.410156 15.875 -16.359375 C 16.144531 -16.304688 16.5 -16.28125 16.9375 -16.28125 C 18.007812 -16.28125 19.003906 -16.550781 19.921875 -17.09375 L 22.546875 -12.140625 Z M 19.203125 -15.203125 C 18.765625 -15.054688 18.398438 -14.957031 18.109375 -14.90625 C 17.816406 -14.851562 17.476562 -14.828125 17.09375 -14.828125 C 15.25 -14.828125 13.734375 -15.421875 12.546875 -16.609375 C 11.359375 -17.796875 10.765625 -19.3125 10.765625 -21.15625 C 10.765625 -22.957031 11.367188 -24.460938 12.578125 -25.671875 C 13.785156 -26.878906 15.265625 -27.484375 17.015625 -27.484375 C 17.398438 -27.484375 17.738281 -27.457031 18.03125 -27.40625 C 18.320312 -27.363281 18.710938 -27.242188 19.203125 -27.046875 L 21.09375 -35.421875 C 20.269531 -35.660156 19.550781 -35.828125 18.9375 -35.921875 C 18.332031 -36.015625 17.691406 -36.0625 17.015625 -36.0625 C 14.984375 -36.0625 13.054688 -35.660156 11.234375 -34.859375 C 9.421875 -34.066406 7.847656 -33.003906 6.515625 -31.671875 C 5.179688 -30.335938 4.113281 -28.757812 3.3125 -26.9375 C 2.507812 -25.125 2.109375 -23.195312 2.109375 -21.15625 C 2.109375 -19.125 2.507812 -17.195312 3.3125 -15.375 C 4.113281 -13.5625 5.191406 -11.988281 6.546875 -10.65625 C 7.898438 -9.320312 9.5 -8.265625 11.34375 -7.484375 C 13.1875 -6.710938 15.148438 -6.328125 17.234375 -6.328125 C 18.054688 -6.328125 18.734375 -6.363281 19.265625 -6.4375 C 19.804688 -6.507812 20.414062 -6.664062 21.09375 -6.90625 Z M 19.203125 -15.203125 "/></g></g></g><g fill="#ff8b8b" fill-opacity="1"><g transform="translate(519.980846, 434.360648)"><g><path d="M 18.1875 0 C 15.414062 0 13.0625 -0.503906 11.125 -1.515625 C 9.1875 -2.535156 7.441406 -4.164062 5.890625 -6.40625 C 5.160156 -7.46875 4.476562 -8.640625 3.84375 -9.921875 C 3.21875 -11.210938 2.675781 -12.523438 2.21875 -13.859375 C 1.757812 -15.191406 1.40625 -16.5 1.15625 -17.78125 C 0.914062 -19.0625 0.796875 -20.257812 0.796875 -21.375 C 0.796875 -23.5625 1.171875 -25.625 1.921875 -27.5625 C 2.671875 -29.5 3.710938 -31.171875 5.046875 -32.578125 C 6.378906 -33.984375 7.929688 -35.097656 9.703125 -35.921875 C 11.472656 -36.742188 13.378906 -37.15625 15.421875 -37.15625 C 16.578125 -37.15625 17.628906 -37.046875 18.578125 -36.828125 C 19.523438 -36.609375 20.601562 -36.207031 21.8125 -35.625 L 21.8125 -36.875 L 32.796875 -36.875 L 35.78125 -31.125 L 35.78125 -16.796875 L 36.21875 -16.796875 L 38.6875 -11.34375 L 35.78125 0 L 26.171875 0 L 24.796875 -2.6875 L 23.703125 0 Z M 34.765625 -15.921875 L 32.140625 -15.921875 L 32.140625 -35.625 L 23.046875 -35.625 L 23.046875 -33.671875 C 21.597656 -34.492188 20.300781 -35.0625 19.15625 -35.375 C 18.019531 -35.6875 16.820312 -35.84375 15.5625 -35.84375 C 13.664062 -35.84375 11.90625 -35.46875 10.28125 -34.71875 C 8.664062 -33.96875 7.265625 -32.9375 6.078125 -31.625 C 4.890625 -30.320312 3.941406 -28.769531 3.234375 -26.96875 C 2.535156 -25.175781 2.1875 -23.265625 2.1875 -21.234375 C 2.1875 -18.222656 2.851562 -15.566406 4.1875 -13.265625 C 5.519531 -10.960938 7.300781 -9.328125 9.53125 -8.359375 C 10.738281 -7.878906 12.164062 -7.492188 13.8125 -7.203125 C 15.457031 -6.910156 17.054688 -6.765625 18.609375 -6.765625 L 21.09375 -6.765625 L 23.125 -11.859375 L 23.125 -6.765625 L 32.359375 -6.765625 Z M 18.25 -15.484375 C 15.925781 -15.484375 14.132812 -16.003906 12.875 -17.046875 C 11.613281 -18.085938 10.984375 -19.53125 10.984375 -21.375 C 10.984375 -23.125 11.5625 -24.59375 12.71875 -25.78125 C 13.882812 -26.96875 15.34375 -27.5625 17.09375 -27.5625 C 18.0625 -27.5625 18.941406 -27.351562 19.734375 -26.9375 C 20.535156 -26.53125 21.207031 -25.988281 21.75 -25.3125 C 22.28125 -24.625 22.628906 -23.894531 22.796875 -23.125 C 22.960938 -22.351562 23.046875 -21.140625 23.046875 -19.484375 L 23.046875 -15.484375 Z M 21.75 -16.796875 L 21.75 -20.21875 C 20.875 -20.65625 19.925781 -20.875 18.90625 -20.875 C 17.019531 -20.875 15.660156 -19.707031 14.828125 -17.375 C 15.554688 -16.988281 16.816406 -16.796875 18.609375 -16.796875 Z M 21.75 -16.796875 "/></g></g></g><g fill="#ff8b8b" fill-opacity="1"><g transform="translate(558.959066, 434.360648)"><g><path d="M 3.125 -5.890625 L 3.125 -31.78125 L -0.078125 -37.59375 L 3.125 -49.734375 L 14.328125 -49.734375 L 17.234375 -43.78125 L 17.234375 -17.09375 L 17.59375 -17.09375 L 20.21875 -11.34375 L 17.234375 0 L 5.8125 0 Z M 13.59375 -6.765625 L 16.078125 -15.921875 L 13.59375 -15.921875 L 13.59375 -48.5 L 4 -48.5 L 1.59375 -38.765625 L 4.515625 -38.765625 L 4.515625 -6.765625 Z M 13.59375 -6.765625 "/></g></g></g><g fill="#ff8b8b" fill-opacity="1"><g transform="translate(579.393532, 434.360648)"><g><path d="M 31.125 -0.359375 C 29.570312 0.0234375 28.09375 0.289062 26.6875 0.4375 C 25.28125 0.582031 23.847656 0.65625 22.390625 0.65625 C 18.273438 0.65625 14.847656 -0.0195312 12.109375 -1.375 C 9.367188 -2.738281 7.125 -4.875 5.375 -7.78125 C 3.875 -10.300781 2.734375 -12.75 1.953125 -15.125 C 1.179688 -17.5 0.796875 -19.753906 0.796875 -21.890625 C 0.796875 -24.066406 1.207031 -26.113281 2.03125 -28.03125 C 2.851562 -29.945312 3.96875 -31.609375 5.375 -33.015625 C 6.78125 -34.421875 8.453125 -35.519531 10.390625 -36.3125 C 12.335938 -37.113281 14.425781 -37.515625 16.65625 -37.515625 C 21.789062 -37.515625 25.957031 -35.359375 29.15625 -31.046875 C 29.832031 -30.078125 30.59375 -28.71875 31.4375 -26.96875 C 32.289062 -25.226562 33.128906 -23.195312 33.953125 -20.875 C 34.390625 -19.65625 34.691406 -18.488281 34.859375 -17.375 C 35.035156 -16.257812 35.171875 -14.78125 35.265625 -12.9375 L 32.578125 -12.9375 L 33.671875 -10.546875 Z M 29.453125 -14.6875 C 28.191406 -14.445312 26.832031 -14.226562 25.375 -14.03125 C 23.925781 -13.84375 22.71875 -13.75 21.75 -13.75 C 20 -13.75 18.347656 -13.976562 16.796875 -14.4375 C 15.242188 -14.894531 14.03125 -15.535156 13.15625 -16.359375 C 12.675781 -16.742188 12.289062 -17.191406 12 -17.703125 C 11.707031 -18.210938 11.367188 -18.878906 10.984375 -19.703125 L 31.34375 -19.703125 C 31.25 -21.546875 31.054688 -23.046875 30.765625 -24.203125 C 30.472656 -25.367188 30.035156 -26.582031 29.453125 -27.84375 C 28.191406 -30.507812 26.429688 -32.582031 24.171875 -34.0625 C 21.921875 -35.539062 19.390625 -36.28125 16.578125 -36.28125 C 14.546875 -36.28125 12.644531 -35.90625 10.875 -35.15625 C 9.101562 -34.40625 7.570312 -33.363281 6.28125 -32.03125 C 5 -30.695312 3.992188 -29.117188 3.265625 -27.296875 C 2.546875 -25.484375 2.1875 -23.507812 2.1875 -21.375 C 2.1875 -19.101562 2.609375 -17.03125 3.453125 -15.15625 C 4.304688 -13.289062 5.503906 -11.691406 7.046875 -10.359375 C 8.597656 -9.023438 10.460938 -7.992188 12.640625 -7.265625 C 14.828125 -6.546875 17.28125 -6.1875 20 -6.1875 C 21.113281 -6.1875 22.273438 -6.242188 23.484375 -6.359375 C 24.703125 -6.484375 26.035156 -6.691406 27.484375 -6.984375 Z M 11.125 -24.9375 C 11.90625 -28.425781 13.769531 -30.171875 16.71875 -30.171875 C 19.582031 -30.171875 21.351562 -28.425781 22.03125 -24.9375 Z M 11.125 -24.9375 "/></g></g></g><g fill="#ff8b8b" fill-opacity="1"><g transform="translate(615.099318, 434.360648)"><g><path d="M 7.78125 -5.671875 L -1.75 -36.875 L 10.828125 -36.875 L 13.75 -31.203125 L 15.640625 -23.046875 L 18.765625 -36.875 L 31.203125 -36.875 L 34.25 -31.203125 L 24.578125 0 L 10.46875 0 Z M 20.796875 -6.765625 L 29.3125 -35.625 L 19.640625 -35.625 L 14.765625 -13.96875 L 9.671875 -35.625 L -0.21875 -35.625 L 8.71875 -6.765625 Z M 20.796875 -6.765625 "/></g></g></g><g fill="#ff8b8b" fill-opacity="1"><g transform="translate(649.787026, 434.360648)"><g><path d="M 3.125 -5.8125 L 3.125 -19.703125 L 2.84375 -19.703125 L 0.140625 -25.234375 L 3.125 -36.875 L 3.421875 -36.875 L 2.1875 -39.265625 L 4.796875 -49.734375 L 16 -49.734375 L 19.125 -43.921875 L 16.5 -33.671875 L 16 -33.671875 L 17.15625 -31.203125 L 17.15625 -17.015625 L 17.53125 -17.015625 L 20.078125 -11.484375 L 17.15625 0 L 5.890625 0 Z M 13.59375 -6.765625 L 16 -15.859375 L 13.53125 -15.859375 L 13.53125 -35.625 L 4 -35.625 L 1.75 -26.46875 L 4.4375 -26.46875 L 4.4375 -6.765625 Z M 12.65625 -40.578125 L 14.609375 -48.5 L 5.671875 -48.5 L 3.78125 -40.578125 Z M 12.65625 -40.578125 "/></g></g></g><g fill="#ff8b8b" fill-opacity="1"><g transform="translate(670.148787, 434.360648)"><g><path d="M 1.015625 -8 L 4 -17.671875 C 4.34375 -17.472656 4.609375 -17.328125 4.796875 -17.234375 C 4.992188 -17.140625 5.210938 -16.992188 5.453125 -16.796875 C 5.742188 -16.597656 5.945312 -16.460938 6.0625 -16.390625 C 6.1875 -16.316406 6.394531 -16.234375 6.6875 -16.140625 C 6.15625 -16.671875 5.609375 -17.429688 5.046875 -18.421875 C 4.492188 -19.421875 3.988281 -20.476562 3.53125 -21.59375 C 3.070312 -22.707031 2.695312 -23.820312 2.40625 -24.9375 C 2.113281 -26.050781 1.96875 -26.972656 1.96875 -27.703125 C 1.96875 -29.109375 2.242188 -30.40625 2.796875 -31.59375 C 3.359375 -32.78125 4.144531 -33.8125 5.15625 -34.6875 C 6.175781 -35.5625 7.390625 -36.238281 8.796875 -36.71875 C 10.203125 -37.207031 11.726562 -37.453125 13.375 -37.453125 C 15.269531 -37.453125 17.066406 -37.207031 18.765625 -36.71875 C 20.460938 -36.238281 22.398438 -35.441406 24.578125 -34.328125 L 27.046875 -28.4375 L 24.21875 -19.34375 C 25.238281 -17.351562 26.0625 -15.425781 26.6875 -13.5625 C 27.320312 -11.695312 27.640625 -10.207031 27.640625 -9.09375 C 27.640625 -7.6875 27.332031 -6.398438 26.71875 -5.234375 C 26.113281 -4.066406 25.273438 -3.046875 24.203125 -2.171875 C 23.140625 -1.304688 21.878906 -0.628906 20.421875 -0.140625 C 18.972656 0.335938 17.398438 0.578125 15.703125 0.578125 C 13.617188 0.578125 11.609375 0.347656 9.671875 -0.109375 C 7.734375 -0.566406 5.550781 -1.351562 3.125 -2.46875 Z M 2.625 -8.65625 C 4.601562 -7.875 6.585938 -7.289062 8.578125 -6.90625 C 10.566406 -6.519531 12.457031 -6.328125 14.25 -6.328125 C 17.257812 -6.328125 19.644531 -7.085938 21.40625 -8.609375 C 23.175781 -10.140625 24.0625 -12.210938 24.0625 -14.828125 C 24.0625 -17.203125 23.019531 -19.164062 20.9375 -20.71875 C 20.601562 -21.007812 20.300781 -21.238281 20.03125 -21.40625 C 19.769531 -21.582031 19.46875 -21.753906 19.125 -21.921875 C 18.78125 -22.085938 18.34375 -22.28125 17.8125 -22.5 C 17.28125 -22.71875 16.578125 -23 15.703125 -23.34375 C 13.859375 -24.019531 12.9375 -24.988281 12.9375 -26.25 C 12.9375 -27.070312 13.226562 -27.738281 13.8125 -28.25 C 14.394531 -28.757812 15.148438 -29.015625 16.078125 -29.015625 C 16.847656 -29.015625 17.609375 -28.867188 18.359375 -28.578125 C 19.109375 -28.285156 20.039062 -27.773438 21.15625 -27.046875 L 23.34375 -33.671875 C 21.445312 -34.640625 19.722656 -35.316406 18.171875 -35.703125 C 16.628906 -36.085938 15.007812 -36.28125 13.3125 -36.28125 C 11.851562 -36.28125 10.515625 -36.0625 9.296875 -35.625 C 8.085938 -35.195312 7.035156 -34.601562 6.140625 -33.84375 C 5.242188 -33.09375 4.539062 -32.195312 4.03125 -31.15625 C 3.519531 -30.113281 3.265625 -28.988281 3.265625 -27.78125 C 3.265625 -26.8125 3.472656 -25.828125 3.890625 -24.828125 C 4.304688 -23.835938 4.851562 -23.050781 5.53125 -22.46875 C 6.0625 -21.988281 6.773438 -21.53125 7.671875 -21.09375 C 8.566406 -20.65625 9.742188 -20.171875 11.203125 -19.640625 C 12.460938 -19.148438 13.332031 -18.675781 13.8125 -18.21875 C 14.300781 -17.757812 14.546875 -17.140625 14.546875 -16.359375 C 14.546875 -15.484375 14.253906 -14.789062 13.671875 -14.28125 C 13.085938 -13.78125 12.285156 -13.53125 11.265625 -13.53125 C 10.296875 -13.53125 9.3125 -13.6875 8.3125 -14 C 7.320312 -14.3125 6.128906 -14.878906 4.734375 -15.703125 Z M 2.625 -8.65625 "/></g></g></g><g fill="#ff8b8b" fill-opacity="1"><g transform="translate(698.509793, 434.360648)"><g><path d="M 3.125 -5.8125 L 3.125 -19.703125 L 2.84375 -19.703125 L 0.140625 -25.234375 L 3.125 -36.875 L 3.421875 -36.875 L 2.1875 -39.265625 L 4.796875 -49.734375 L 16 -49.734375 L 19.125 -43.921875 L 16.5 -33.671875 L 16 -33.671875 L 17.15625 -31.203125 L 17.15625 -17.015625 L 17.53125 -17.015625 L 20.078125 -11.484375 L 17.15625 0 L 5.890625 0 Z M 13.59375 -6.765625 L 16 -15.859375 L 13.53125 -15.859375 L 13.53125 -35.625 L 4 -35.625 L 1.75 -26.46875 L 4.4375 -26.46875 L 4.4375 -6.765625 Z M 12.65625 -40.578125 L 14.609375 -48.5 L 5.671875 -48.5 L 3.78125 -40.578125 Z M 12.65625 -40.578125 "/></g></g></g><g fill="#ff8b8b" fill-opacity="1"><g transform="translate(718.871553, 434.360648)"><g><path d="M 17.015625 -37.3125 C 19.773438 -37.3125 22.34375 -36.675781 24.71875 -35.40625 C 27.09375 -34.144531 28.984375 -32.425781 30.390625 -30.25 C 30.972656 -29.375 31.59375 -28.269531 32.25 -26.9375 C 32.90625 -25.601562 33.5 -24.234375 34.03125 -22.828125 C 34.5625 -21.421875 34.925781 -20.269531 35.125 -19.375 C 35.320312 -18.476562 35.421875 -17.425781 35.421875 -16.21875 C 35.421875 -13.84375 35.003906 -11.632812 34.171875 -9.59375 C 33.347656 -7.5625 32.222656 -5.804688 30.796875 -4.328125 C 29.367188 -2.847656 27.679688 -1.679688 25.734375 -0.828125 C 23.796875 0.015625 21.691406 0.4375 19.421875 0.4375 C 17.085938 0.4375 14.863281 -0.0195312 12.75 -0.9375 C 10.644531 -1.863281 8.867188 -3.148438 7.421875 -4.796875 C 6.691406 -5.617188 5.988281 -6.613281 5.3125 -7.78125 C 4.632812 -8.945312 3.90625 -10.453125 3.125 -12.296875 C 2.6875 -13.304688 2.320312 -14.210938 2.03125 -15.015625 C 1.738281 -15.816406 1.492188 -16.554688 1.296875 -17.234375 C 1.109375 -17.910156 0.976562 -18.578125 0.90625 -19.234375 C 0.832031 -19.890625 0.796875 -20.554688 0.796875 -21.234375 C 0.796875 -23.460938 1.21875 -25.546875 2.0625 -27.484375 C 2.914062 -29.421875 4.082031 -31.117188 5.5625 -32.578125 C 7.039062 -34.035156 8.757812 -35.1875 10.71875 -36.03125 C 12.6875 -36.882812 14.785156 -37.3125 17.015625 -37.3125 Z M 17.15625 -35.921875 C 15.070312 -35.921875 13.117188 -35.546875 11.296875 -34.796875 C 9.484375 -34.046875 7.898438 -33.003906 6.546875 -31.671875 C 5.191406 -30.335938 4.125 -28.769531 3.34375 -26.96875 C 2.570312 -25.175781 2.1875 -23.238281 2.1875 -21.15625 C 2.1875 -19.125 2.570312 -17.195312 3.34375 -15.375 C 4.125 -13.5625 5.191406 -11.988281 6.546875 -10.65625 C 7.898438 -9.320312 9.484375 -8.265625 11.296875 -7.484375 C 13.117188 -6.710938 15.070312 -6.328125 17.15625 -6.328125 C 19.195312 -6.328125 21.101562 -6.710938 22.875 -7.484375 C 24.644531 -8.265625 26.195312 -9.304688 27.53125 -10.609375 C 28.863281 -11.921875 29.914062 -13.460938 30.6875 -15.234375 C 31.457031 -17.003906 31.84375 -18.882812 31.84375 -20.875 C 31.84375 -22.957031 31.46875 -24.921875 30.71875 -26.765625 C 29.96875 -28.609375 28.925781 -30.207031 27.59375 -31.5625 C 26.257812 -32.914062 24.695312 -33.976562 22.90625 -34.75 C 21.113281 -35.53125 19.195312 -35.921875 17.15625 -35.921875 Z M 17.15625 -27.421875 C 18.957031 -27.421875 20.460938 -26.789062 21.671875 -25.53125 C 22.878906 -24.269531 23.484375 -22.71875 23.484375 -20.875 C 23.484375 -19.175781 22.890625 -17.734375 21.703125 -16.546875 C 20.515625 -15.359375 19.070312 -14.765625 17.375 -14.765625 C 16.457031 -14.765625 15.597656 -14.921875 14.796875 -15.234375 C 13.992188 -15.546875 13.289062 -15.992188 12.6875 -16.578125 C 12.082031 -17.160156 11.609375 -17.835938 11.265625 -18.609375 C 10.929688 -19.390625 10.765625 -20.21875 10.765625 -21.09375 C 10.765625 -22.9375 11.367188 -24.453125 12.578125 -25.640625 C 13.785156 -26.828125 15.3125 -27.421875 17.15625 -27.421875 Z M 21.890625 -19.921875 C 21.066406 -20.410156 20.21875 -20.65625 19.34375 -20.65625 C 17.113281 -20.65625 15.515625 -19.367188 14.546875 -16.796875 C 15.078125 -16.503906 15.507812 -16.3125 15.84375 -16.21875 C 16.1875 -16.125 16.625 -16.078125 17.15625 -16.078125 C 18.320312 -16.078125 19.328125 -16.398438 20.171875 -17.046875 C 21.023438 -17.703125 21.597656 -18.660156 21.890625 -19.921875 Z M 21.890625 -19.921875 "/></g></g></g><g fill="#ff8b8b" fill-opacity="1"><g transform="translate(755.086395, 434.360648)"><g><path d="M 3.125 -5.96875 L 2.984375 -19.78125 L 0.140625 -25.234375 L 3.125 -36.875 L 14.546875 -36.875 L 15.265625 -35.34375 L 16.078125 -36.875 L 22.609375 -36.875 C 23.972656 -36.875 25.148438 -36.785156 26.140625 -36.609375 C 27.140625 -36.441406 28.015625 -36.140625 28.765625 -35.703125 C 29.515625 -35.265625 30.15625 -34.691406 30.6875 -33.984375 C 31.21875 -33.285156 31.726562 -32.40625 32.21875 -31.34375 C 32.800781 -30.03125 33.269531 -28.9375 33.625 -28.0625 C 33.988281 -27.195312 34.253906 -26.382812 34.421875 -25.625 C 34.597656 -24.875 34.722656 -24.125 34.796875 -23.375 C 34.867188 -22.625 34.90625 -21.765625 34.90625 -20.796875 L 34.90625 -17.015625 L 35.5625 -17.015625 L 38.328125 -11.265625 L 35.265625 0 L 23.5625 0 L 20.9375 -5.96875 L 20.9375 -19.78125 C 20.550781 -19.832031 20.257812 -19.867188 20.0625 -19.890625 C 19.875 -19.910156 19.585938 -19.921875 19.203125 -19.921875 L 17.09375 -20 L 17.09375 0 L 5.890625 0 Z M 13.453125 -6.765625 L 13.453125 -26.6875 L 16.578125 -26.6875 C 17.785156 -26.6875 18.671875 -26.613281 19.234375 -26.46875 C 19.796875 -26.320312 20.34375 -25.984375 20.875 -25.453125 C 21.457031 -24.921875 21.832031 -24.347656 22 -23.734375 C 22.164062 -23.128906 22.25 -22.078125 22.25 -20.578125 L 22.25 -6.765625 L 31.921875 -6.765625 L 34.25 -15.78125 L 31.34375 -15.78125 L 31.34375 -26.328125 C 31.34375 -28.410156 31.160156 -30.03125 30.796875 -31.1875 C 30.429688 -32.351562 29.765625 -33.328125 28.796875 -34.109375 C 28.117188 -34.691406 27.296875 -35.085938 26.328125 -35.296875 C 25.359375 -35.515625 24 -35.625 22.25 -35.625 L 16.578125 -35.625 L 13.453125 -29.734375 L 13.453125 -35.625 L 4.078125 -35.625 L 1.8125 -26.328125 L 4.359375 -26.328125 L 4.359375 -6.765625 Z M 13.453125 -6.765625 "/></g></g></g></svg>